<svg xmlns="http://www.w3.org/2000/svg" viewBox="0 0 501 501"><path xmlns="http://www.w3.org/2000/svg" d="M5.5 256c0-135.133 109.404-244.713 244.47-244.999 135.266-.286 244.687 108.184 245.525 243.448.48 77.464-34.993 146.66-90.712 191.882-2.829 2.296-6.536 3.188-10.11 2.48C349.559 439.865 301.037 435 250.5 435c-50.694 0-99.36 4.896-144.594 13.893a11.341 11.341 0 01-9.355-2.293C41.013 401.686 5.5 332.99 5.5 256z" fill="#264653" data-original="#01cffa"/><path xmlns="http://www.w3.org/2000/svg" d="M270.5 415h-40c-13.807 0-25-11.193-25-25s11.193-25 25-25h40c13.807 0 25 11.193 25 25s-11.193 25-25 25z" fill="#e9c46a" data-original="#0494fb"/><path xmlns="http://www.w3.org/2000/svg" d="M289.03 354.302h-77.06c-64.877 0-117.47-52.593-117.47-117.47s52.593-117.47 117.47-117.47h77.06c64.877 0 117.47 52.593 117.47 117.47s-52.593 117.47-117.47 117.47zM355.115 380H145.886c-35.981 0-59.063 34.667-49.937 66.112C138.108 480.428 191.902 501 250.5 501s112.392-20.572 154.552-54.888C414.178 414.667 391.096 380 355.115 380z" fill="#e9441b" data-original="#c43286"/><path xmlns="http://www.w3.org/2000/svg" d="M135.634 242.5c-3.11 0-5.678-2.501-5.679-5.611v-.057c0-64.877 52.593-117.47 117.47-117.47h41.606c64.877 0 117.47 52.593 117.47 117.47 0 1.9-.046 3.79-.135 5.668zm3.127 15c-3.663 0-6.392 3.423-5.533 6.984 12.434 51.534 58.844 89.818 114.196 89.818h41.606c57.825 0 105.891-41.781 115.657-96.802zm266.291 188.611c-37.628 30.627-84.521 50.306-135.827 54.183-39.777-3.006-76.903-15.511-109.114-35.251-38.525-23.61-23.848-83.452 21.31-85.01a55.246 55.246 0 011.915-.033h171.779c35.981 0 59.063 34.667 49.937 66.111zM230.5 436.5a7.5 7.5 0 00-15 0v17a7.5 7.5 0 0015 0zm27.5-9a7.5 7.5 0 00-15 0v35a7.5 7.5 0 0015 0zm27.5 9a7.5 7.5 0 00-15 0v17a7.5 7.5 0 0015 0z" fill="#e76f51" data-original="#fc5e93"/><path xmlns="http://www.w3.org/2000/svg" d="M320.5 250c0 38.66-31.34 70-70 70s-70-31.34-70-70 31.34-70 70-70 70 31.34 70 70z" fill="#2a9d8f" data-original="#0ed1b2"/><path xmlns="http://www.w3.org/2000/svg" d="M320.5 250c0 14.344-4.315 27.681-11.717 38.783C297.681 296.185 284.345 300.5 270 300.5c-38.66 0-70-31.34-70-70 0-14.344 4.315-27.681 11.717-38.783C222.819 184.315 236.156 180 250.5 180c38.66 0 70 31.34 70 70z" fill="#00f1a5" data-original="#00f1a5"/><path xmlns="http://www.w3.org/2000/svg" d="M280.5 250c0 16.569-13.431 30-30 30s-30-13.431-30-30 13.431-30 30-30 30 13.431 30 30z" fill="#00429a" data-original="#00429a"/><path xmlns="http://www.w3.org/2000/svg" d="M276.851 264.351C271.762 273.675 261.87 280 250.5 280c-16.569 0-30-13.431-30-30 0-11.37 6.325-21.262 15.649-26.351A29.86 29.86 0 00232.5 238c0 16.569 13.431 30 30 30a29.87 29.87 0 0014.351-3.649z" fill="#012d4e" data-original="#012d4e"/><path xmlns="http://www.w3.org/2000/svg" d="M285 230.5c0 8.284-6.716 15-15 15s-15-6.716-15-15 6.716-15 15-15 15 6.716 15 15z" fill="#f5f0eb" data-original="#f5f0eb"/><path xmlns="http://www.w3.org/2000/svg" d="M131.302 25.977l49.135 85.104-12.99 7.5-49.135-85.104c-6.126.36-12.224-2.672-15.501-8.349-4.625-8.011-1.88-18.256 6.131-22.881s18.255-1.88 22.881 6.131c3.277 5.676 2.853 12.473-.521 17.599zm260.757-23.73c-8.011-4.625-18.256-1.88-22.881 6.131-3.277 5.676-2.854 12.473.52 17.599l-49.135 85.104 12.99 7.5 49.135-85.104c6.126.36 12.224-2.672 15.501-8.349 4.626-8.012 1.881-18.256-6.13-22.881z" fill="#012d4e" data-original="#012d4e"/><path xmlns="http://www.w3.org/2000/svg" d="M409.132 128.744a12.012 12.012 0 017.368 11.077c0 6.634-5.378 12.011-12.011 12.011H96.511c-6.634 0-12.011-5.378-12.011-12.011 0-4.84 2.905-9.206 7.368-11.077l88.061-36.912 5.06-35.423c2.015-14.102 14.092-24.577 28.338-24.577a28.624 28.624 0 0116.638 5.332l3.897 2.784a28.626 28.626 0 0033.276 0l3.897-2.784a28.624 28.624 0 0116.638-5.332c14.245 0 26.323 10.475 28.338 24.577l5.06 35.423z" fill="#0055c7" data-original="#0055c7"/><path xmlns="http://www.w3.org/2000/svg" d="M106.664 151.832H96.511c-6.634 0-12.011-5.378-12.011-12.011 0-4.84 2.905-9.206 7.368-11.077l88.061-36.912 5.06-35.423c2.015-14.102 14.092-24.577 28.338-24.577 1.487 0 2.965.116 4.422.344a33.299 33.299 0 00-7.011 19.34l-.999 40.317-97.993 55.21a13.97 13.97 0 00-5.082 4.789z" fill="#015081" data-original="#015081"/><path xmlns="http://www.w3.org/2000/svg" d="M318.214 71.832s1.113 6.933 1.473 9.481c.35 2.478 1.384 10.519 1.384 10.519H181.929l2.857-20z" fill="#003278" data-original="#003278"/><path xmlns="http://www.w3.org/2000/svg" d="M209.738 91.832h-29.809s.88-7.496 1.301-10.249c.346-2.264 1.557-9.751 1.557-9.751h27.448z" fill="#012d4e" data-original="#012d4e"/></svg>